<?xml version="1.0" encoding="utf-8"?>
<!-- Generator: Adobe Illustrator 22.1.0, SVG Export Plug-In . SVG Version: 6.00 Build 0)  -->
<svg version="1.2" baseProfile="tiny" id="Laag_1" xmlns="http://www.w3.org/2000/svg" xmlns:xlink="http://www.w3.org/1999/xlink"
	 x="0px" y="0px" width="80px" height="80px" viewBox="0 0 80 80" xml:space="preserve">
<g id="Iconen">
	<g>
		<path fill="#41873E" d="M79.2,40c0,28.6-17.6,39.2-39.2,39.2S0.8,66.1,0.8,44.4S18.3,0.8,40,0.8S79.2,18.3,79.2,40z"/>
	</g>
	<g>
		<path fill="#FFFFFF" d="M55.8,17.9c-1.4,0-2.5,1.1-2.5,2.5s1.1,2.5,2.5,2.5s2.5-1.1,2.5-2.5S57.2,17.9,55.8,17.9z M55.8,21.5
			c-0.6,0-1-0.5-1-1c0-0.6,0.5-1,1-1c0.6,0,1,0.5,1,1S56.4,21.5,55.8,21.5z"/>
		<path fill="#FFFFFF" d="M39.5,24.5c-3.8-2.1-7.7-1.4-10.7-0.1c1.2-4.1,1.6-7.6,1.3-10.9c-0.1-1.1-0.7-1.6-1.1-1.7
			c-0.6-0.3-1.1-0.1-1.3,0l-5.2,1.5c-0.5,0.1-0.8,0.5-1,0.9s-0.1,0.9,0.2,1.3c1.5,2.3,2.8,5.7,3.3,8.7c-2.3-1.5-6.7-2.7-14,1.4
			l-1,0.6l1,0.7c0.1,0.1,7.7,5.2,8.1,11c0.1,2.2-0.9,4.3-3,6.1l-0.6,0.5l0.5,0.6c0,0,3.8,3.9,2.9,7.9c-0.6,2.6-3.1,4.8-7.4,6.5
			l-0.7,0.3l0.3,0.7c0.1,0.2,2.3,5.7,6.3,6.7c0.4,0.1,0.9,0.2,1.4,0.2c1.3,0,2.7-0.5,4-1.6c2.1-1.7,3.1-1.1,4.5-0.3
			c2.4,1.4,5.5,3.2,14.2-5.5l1-1L41,58.7c-2.5-0.6-9.3-2.8-10.2-6.5c-0.5-1.9,0.6-4.1,3.3-6.5l0.5-0.5l-0.5-0.6c0,0-2.6-3.2-1.6-6.9
			c0.9-3.4,4.4-6.4,10.5-8.7l0.8-0.3l-0.5-0.8C43.5,28,42.2,25.9,39.5,24.5z M27.3,14.9c0,1.5-0.1,3.1-0.4,4.8
			c-0.5-1.5-1.1-2.9-1.7-4.1L27.3,14.9z M24.7,25.9c0.1,0.1,0.3,0.2,0.4,0.3c0,0.1,0,0.2,0,0.2c0,0.7,0.5,1.3,1.3,1.4
			c0.1,0,0.2,0,0.2,0c0.6,0,1.2-0.4,1.4-1c0.1-0.2,0.1-0.4,0.2-0.6c3.9-1.9,7.5-2.1,10.5-0.5c0.6,0.3,1.2,0.7,1.7,1.1
			c-2.1-0.4-3.8,0-5,0.5s-2.1,1.2-2.6,1.6c-2.9-1.2-6.2,0.8-7.6,1.7c-2.4-3-8.1-4.4-11.4-4.9C19.8,23.1,23.2,24.6,24.7,25.9z
			 M27.9,64.2c-1.5-0.9-3.2-1.9-6.1,0.4c-1.4,1.1-2.8,1.5-4.1,1.1c-1.7-0.4-3-2-3.9-3.3c0.5,0.2,1,0.3,1.6,0.3c0.1,0,0.2,0,0.2,0
			c1.8,0,3.7-0.9,5.5-2.6c0.5,0.3,1.3,0.7,2.3,1c1.5,0.4,3.8,0.6,6.4-1c1.1,0.5,4.1,1.8,8.2,1C31.9,66.5,29.8,65.3,27.9,64.2z
			 M31.2,37.5c-0.9,3.5,0.6,6.4,1.4,7.7c-2.8,2.6-3.9,5.1-3.3,7.5c0.6,2.3,2.7,4.2,6.3,5.8c1,0.5,2,0.8,2.8,1.1
			c-4.7,1.2-8.1-0.8-8.2-0.9l-0.4-0.2l-0.4,0.3c-4.3,2.8-7.7,0-7.9-0.1L21,58.1l-0.5,0.5c-1.7,1.8-3.4,2.6-5,2.6
			c-1,0-1.8-0.4-2.4-0.8c4.1-1.8,6.5-4.2,7.2-7.1c0.8-3.8-1.6-7.4-2.7-8.7c2.1-2,3.1-4.3,2.9-6.8c-0.3-4.4-4-8.3-6.5-10.4
			c3.7,0.6,9,2.1,10.4,4.8l0.4,0.8l0.7-0.6c0,0,4.2-3.5,7.1-1.8l0.5,0.3l0.4-0.4c0.1-0.1,2.9-3.1,7.3-1.9
			C35.4,30.9,32.2,33.9,31.2,37.5z"/>
		<path fill="#FFFFFF" d="M68.6,39.3c0.7,0,1.4-0.5,1.5-1.3s-0.4-1.6-1.2-1.7c-3-0.5-5.9-0.9-8.7-1.2c0-1.6,0-3.2,0-4.7
			c2.5-0.1,5.1-0.1,7.6-0.1c0.8,0,1.5-0.7,1.5-1.5s-0.7-1.5-1.5-1.5c-2.5,0-5.1,0-7.7,0.1c0-0.3,0-0.6,0-0.9c0-0.4-0.2-0.8-0.4-1
			c5-0.2,8.4-0.7,8.5-0.7l0.9-0.1l-0.3-0.8c-2.2-6.4-5.9-10.2-6.1-10.4c-1.4-1.4-3-2-4.6-1.6c-5.3,1.1-9.4,11.9-9.5,12.4l-0.3,0.9
			l1,0.1c2.5,0.2,5,0.3,7.3,0.3c0.3,0,0.7,0,1,0c-0.2,0.3-0.4,0.6-0.4,1s0,0.7,0,1.1c-2.9,0.2-5.8,0.4-8.6,0.8
			c-0.8,0.1-1.4,0.8-1.3,1.6c0.1,0.8,0.7,1.3,1.5,1.3c0.1,0,0.1,0,0.2,0c2.7-0.3,5.5-0.6,8.3-0.7c0,1.4,0,2.9,0,4.3
			c-3.4-0.3-6.8-0.6-10.5-0.8c-0.8,0-1.5,0.6-1.6,1.4c0,0.8,0.6,1.5,1.4,1.6c3.8,0.2,7.3,0.5,10.7,0.8c0,1.4,0,2.9,0.1,4.3
			c-2.8,0-5.7,0-8.7,0l0,0c-0.8,0-1.5,0.7-1.5,1.5s0.6,1.5,1.5,1.5c3.1,0,6,0,8.8,0c0,1.6,0.1,3.1,0.1,4.7l-5.9,0.8
			c-0.8,0.1-1.4,0.9-1.3,1.7c0.1,0.7,0.7,1.3,1.5,1.3c0.1,0,0.1,0,0.2,0l5.6-0.7c0,1.3,0.1,2.5,0.1,3.8c0,0.2,0.1,0.5,0.2,0.7
			l-7.3,11.2l8.7-2.3l8.6,1.7l-7.5-10.6c0.2-0.2,0.2-0.5,0.2-0.9c-0.1-1.3-0.1-2.7-0.2-4l4.6-0.6c0.8-0.1,1.4-0.9,1.3-1.7
			s-0.9-1.4-1.7-1.3l-4.3,0.6c0-1.4-0.1-2.9-0.1-4.3c2.6,0,5.4,0,8.3,0l0,0c0.8,0,1.5-0.7,1.5-1.5s-0.6-1.5-1.5-1.5
			c-2.9,0-5.7,0-8.4,0c0-1.3-0.1-2.6-0.1-4c2.7,0.3,5.4,0.7,8.2,1.1C68.4,39.3,68.5,39.3,68.6,39.3z M50.3,23.8
			c1.4-3.4,4.7-9.8,8.1-10.5c1.1-0.2,2.2,0.2,3.2,1.2c0,0,3.3,3.4,5.4,9C64.6,23.7,57.8,24.4,50.3,23.8z M64.5,65.7l-5.3-1.1
			L53.9,66l5.2-8L64.5,65.7z"/>
		<path fill="#FFFFFF" d="M22.8,39.7c-0.8,0-1.5,0.7-1.5,1.5v4.1c0,0.8,0.7,1.5,1.5,1.5s1.5-0.7,1.5-1.5v-4.1
			C24.2,40.3,23.6,39.7,22.8,39.7z"/>
		<path fill="#FFFFFF" d="M28.6,39.7c-0.8-0.2-1.6,0.2-1.8,1l-1.4,4.6c-0.2,0.8,0.2,1.6,1,1.8c0.1,0,0.3,0.1,0.4,0.1
			c0.6,0,1.2-0.4,1.4-1.1l1.4-4.6C29.8,40.8,29.4,39.9,28.6,39.7z"/>
	</g>
</g>
<g id="hulplijnen">
</g>
</svg>
