<?xml version="1.0" encoding="utf-8"?>
<!-- Generator: Adobe Illustrator 22.1.0, SVG Export Plug-In . SVG Version: 6.00 Build 0)  -->
<svg version="1.2" baseProfile="tiny" id="Laag_1" xmlns="http://www.w3.org/2000/svg" xmlns:xlink="http://www.w3.org/1999/xlink"
	 x="0px" y="0px" width="80px" height="80px" viewBox="0 0 80 80" xml:space="preserve">
<g id="Iconen">
	<path fill="#0070CD" d="M79.1,40.1c0,28.6-17.6,39.2-39.2,39.2S0.7,66.2,0.7,44.6S18.2,0.9,39.9,0.9S79.1,18.5,79.1,40.1z"/>
	<path fill="#FFFFFF" d="M62.8,29.3v-0.6h-3c0-0.2,0-0.4-0.1-0.7c-0.1-0.3-0.2-0.6-0.3-0.8c-0.4-1-0.8-2.1-1.6-3.2
		c-0.1-0.1-0.3-0.5-0.4-0.8c-1-1.9-1.7-3.1-2.8-3.4c-0.7-0.2-1.2,0.1-2.3,0.6c-0.1,0.1-0.2,0.1-0.3,0.1c-1,0.4-2.1,0.8-3.3,1.2
		c-2.6,0.9-5.6,1.6-9.1,2.3c-0.4,0.1-0.7,0.3-0.9,0.6c-2.2-1.2-4.1-2.3-5.2-3.1c-0.1-0.1-0.3-0.2-0.5-0.4c-2.5-2-4-3-5.3-2.7
		c-0.9,0.2-1.6,1.1-2.4,3.2c-0.1,0-0.2-0.1-0.3-0.1c-0.5-0.3-1-0.3-1.5-0.1c-0.5,0.2-0.8,0.7-0.9,1.2c-0.2,1.8-0.3,3.8-0.3,6H19
		l-7,18.6h7v15.2h12.6h1.6h29.6V46.1h5.9L62.8,29.3z M49.8,24.6c1.2-0.4,2.4-0.8,3.5-1.3c0.1,0,0.2-0.1,0.4-0.2c0,0,0.1,0,0.2-0.1
		c0.3,0.5,0.6,1.1,0.8,1.5c0.2,0.5,0.4,0.9,0.6,1.1c0.5,0.8,0.9,1.7,1.3,2.7c0,0.1,0.1,0.2,0.1,0.3h-9.8c-1.3-0.6-2.7-1.3-4.2-2.1
		C45.3,26,47.6,25.4,49.8,24.6z M39.8,28.7h-1.2c0-0.2,0-0.4-0.1-0.7C39,28.3,39.4,28.5,39.8,28.7z M28.7,21.7
		c0.5,0.3,1.4,0.9,2.4,1.8c0.2,0.2,0.4,0.3,0.6,0.5c0.9,0.7,2.4,1.6,4.1,2.5c-2.7-0.9-5.3-2.1-7.6-3.4C28.3,22.5,28.5,22,28.7,21.7z
		 M14.3,45.6l5.9-15.5H23c0.3,0.2,0.6,0.4,1,0.4s0.7-0.1,1-0.4h6.4l-5.9,15.5H14.3z M31.6,60.8h-11V47.2h5.9l5.1-13.4V60.8z
		 M25.5,28.6c0-1.1,0-2.2,0.1-3.2c2,1.1,4.3,2.3,6.7,3.2H25.5z M61.2,60.8h-28V30.3H43c2.2,1.1,4.1,2,5.2,2.5
		c0.2,0.1,0.4,0.1,0.6,0.1c0.6,0,1.2-0.3,1.4-0.9c0.3-0.6,0.1-1.2-0.3-1.7h11.3V60.8z M62.8,34l3.7,10.5h-3.7V34z"/>
</g>
<g id="hulplijnen">
</g>
</svg>
