<?xml version="1.0" encoding="utf-8"?>
<!-- Generator: Adobe Illustrator 22.1.0, SVG Export Plug-In . SVG Version: 6.00 Build 0)  -->
<svg version="1.2" baseProfile="tiny" id="Laag_1" xmlns="http://www.w3.org/2000/svg" xmlns:xlink="http://www.w3.org/1999/xlink"
	 x="0px" y="0px" width="80px" height="80px" viewBox="0 0 80 80" xml:space="preserve">
<g id="Iconen">
	<path fill="#FF6B0B" d="M79.3,40.1c0,28.8-17.7,39.5-39.5,39.5S0.3,66.3,0.3,44.5s17.7-44,39.5-44S79.3,18.3,79.3,40.1z"/>
	<g>
		<path fill="#FFFFFF" d="M26.7,12.9c0-0.4-0.4-0.8-0.8-0.8s-0.8,0.4-0.8,0.8v6.4l-9.3,7.9v39.7h20.3V27.1l-9.5-8L26.7,12.9
			L26.7,12.9z M34.6,27.8v37.4H17.5V27.8l8.6-7.3L34.6,27.8z"/>
		<path fill="#FFFFFF" d="M66.5,40l0.7-1.9l-7.6-3.5c0.2-0.4,0.2-0.9,0-1.3c-0.5-1.2-1.2-2.3-2-3.2c-0.6-0.7-1.6-0.7-2.2-0.2
			c-0.7,0.6-0.7,1.6-0.2,2.2c0.2,0.3,0.4,0.5,0.6,0.8l-4-1.9l-1.1,1.7l-3.9,1.6L40,48.4v14.3l1.3,1.6v1.9h19.4v-2.1l1-1.5v-2.9
			c0.7-0.5,1.3-1.1,1.7-1.9c0.5-0.7,0.2-1.7-0.5-2.2c-0.4-0.2-0.8-0.3-1.2-0.2v-5.8l-0.9,0.2l5.9-6.1L66.5,40z M58,50.5L55.8,51
			c0.4-1,0.8-1.8,1.4-2.4c0.8-0.9,1.8-1.4,2.7-1.5c0.4,0,0.6,0,0.7,0.1c0.1,0.1,0.2,0.3,0.3,0.4L58,50.5z M63.1,45.2
			c-0.7-1-2-1.5-3.5-1.3c-1.8,0.2-3.5,1.1-4.8,2.6c-1,1.2-1.8,2.7-2.3,4.5c-0.2,0.8,0.2,1.7,1.1,2c0.1,0,0.3,0.1,0.4,0.1
			c0.1,0,0.2,0,0.2,0c0.1,0,0.1,0,0.2,0l5.7-1.3v5.3c-0.9,0.9-2.5,1.6-4.7,1.6l0,0c-0.5,0-1.2,0-1.7-0.3c-0.4-0.2-0.7-0.6-1.1-1
			c-0.4-0.5-0.9-1-1-1.5c-0.2-0.5-0.1-1.3-0.1-2l0.2-2.2c0.1-0.9-0.6-1.6-1.4-1.7c-0.9-0.1-1.6,0.6-1.7,1.4l-0.2,2.2
			c-0.1,0.9-0.2,2.1,0.2,3.3c0.4,1.1,1.1,1.9,1.6,2.5c0.5,0.5,1.1,1.2,1.9,1.7c1.1,0.6,2.3,0.7,3.3,0.7c0,0,0,0,0.1,0
			c1.7,0,3.3-0.3,4.7-1v1.5l-1,1.5v1H43v-0.9l-1.3-1.6V48.7l6.1-12.8l16.8,7.7L63.1,45.2z M65.1,42.1l-15.7-7.2l2.4-1l0.6-1
			l12.9,5.9L65,39.7L65.1,42.1z"/>
		<path fill="#FFFFFF" d="M22.3,33.4c-0.5,0-1,0.3-1.3,0.6c-0.4,0-0.8,0.1-1,0.1c-0.9,0-1.6,0.7-1.6,1.5c0,0.9,0.7,1.6,1.5,1.6
			c0.2,0,0.5,0,0.8,0c-0.2,7.1,0.1,9.7,1.1,10.8c0.3,0.3,0.9,1,3.2,1c1.1,0,2.6-0.2,4.6-0.6c0.6-0.1,1.1-0.6,1.2-1.3
			c0-0.3,0.1-0.7,0.2-1.1c1.3-6,1.7-9.8,0.2-11.5c-1.4-1.5-4.2-1.4-8-0.8C23,33.5,22.7,33.4,22.3,33.4z M23.9,36.8
			c1-0.1,2.2-0.3,3.1-0.3c1.3,0,1.8,0.1,2,0.2c0.1,0.2,0.3,1,0,3.5c-0.2,1.8-0.6,3.8-0.9,5.2c0,0.1,0,0.1,0,0.2
			c-1.8,0.3-3.3,0.4-3.9,0.3C23.8,44.8,23.7,41.8,23.9,36.8z"/>
	</g>
</g>
<g id="hulplijnen">
</g>
</svg>
